<svg id="visual" viewBox="0 0 960 240" width="960" height="240" xmlns="http://www.w3.org/2000/svg" xmlns:xlink="http://www.w3.org/1999/xlink" version="1.1"><rect x="0" y="0" width="960" height="240" fill="#ffffff"></rect><path d="M0 87L22.8 96C45.7 105 91.3 123 137 129.2C182.7 135.3 228.3 129.7 274 123.8C319.7 118 365.3 112 411.2 119.5C457 127 503 148 548.8 146C594.7 144 640.3 119 686 112.7C731.7 106.3 777.3 118.7 823 131.5C868.7 144.3 914.3 157.7 937.2 164.3L960 171L960 241L937.2 241C914.3 241 868.7 241 823 241C777.3 241 731.7 241 686 241C640.3 241 594.7 241 548.8 241C503 241 457 241 411.2 241C365.3 241 319.7 241 274 241C228.3 241 182.7 241 137 241C91.3 241 45.7 241 22.8 241L0 241Z" fill="#000000" stroke-linecap="round" stroke-linejoin="miter"></path></svg>